<?xml version="1.0" encoding="UTF-8" standalone="no"?>
<svg xmlns:xlink="http://www.w3.org/1999/xlink" height="8.0px" width="8.0px" xmlns="http://www.w3.org/2000/svg">
  <g transform="matrix(1.0, 0.0, 0.0, 1.0, 4.0, 4.0)">
    <path d="M2.1 -2.15 Q3.0 -1.25 3.0 0.0 3.0 1.25 2.1 2.1 1.25 3.0 0.0 3.0 -1.25 3.0 -2.15 2.1 -3.0 1.25 -3.0 0.0 -3.0 -1.25 -2.15 -2.15 -1.25 -3.0 0.0 -3.0 1.25 -3.0 2.1 -2.15" fill="#ff0000" fill-rule="evenodd" stroke="none"/>
    <path d="M2.1 -2.15 Q3.0 -1.25 3.0 0.0 3.0 1.25 2.1 2.1 1.25 3.0 0.0 3.0 -1.25 3.0 -2.15 2.1 -3.0 1.25 -3.0 0.0 -3.0 -1.25 -2.15 -2.15 -1.25 -3.0 0.0 -3.0 1.25 -3.0 2.1 -2.15 Z" fill="none" stroke="#ffffff" stroke-linecap="round" stroke-linejoin="round" stroke-width="2.0"/>
  </g>
</svg>
