<?xml version="1.0" encoding="UTF-8" standalone="no"?>
<svg xmlns:xlink="http://www.w3.org/1999/xlink" height="167.6px" width="108.95px" xmlns="http://www.w3.org/2000/svg">
  <g transform="matrix(1.0, 0.0, 0.0, 1.0, 54.45, 83.8)">
    <path d="M18.0 -60.7 Q12.4 -37.85 20.05 -24.75 23.0 -21.0 24.7 -17.45 L21.05 2.3 Q37.1 5.75 53.5 8.4 L50.2 25.95 46.5 45.9 44.55 56.85 16.8 52.5 Q21.2 25.95 23.3 15.8 L17.65 14.8 10.85 51.45 Q6.95 65.65 -2.25 73.65 L-5.85 76.4 Q-9.9 79.15 -14.8 80.9 L-19.95 82.35 -20.8 82.55 Q-26.0 83.15 -30.6 82.35 -33.4 81.9 -36.0 80.9 -39.5 79.5 -42.55 77.15 L-43.5 76.4 Q-51.65 69.55 -53.35 56.55 -54.05 50.05 -49.25 41.3 -40.9 29.75 -33.55 21.0 -26.25 12.25 -23.15 6.45 -18.7 -2.4 -28.0 -7.15 L-47.25 -16.95 -28.95 -52.75 Q-10.3 -80.45 7.45 -82.8 23.65 -83.5 18.0 -60.7 Z" fill="none" stroke="#000000" stroke-linecap="round" stroke-linejoin="round" stroke-width="2.0"/>
  </g>
</svg>
