<?xml version="1.0" encoding="UTF-8" standalone="no"?>
<svg xmlns:xlink="http://www.w3.org/1999/xlink" height="20.95px" width="137.45px" xmlns="http://www.w3.org/2000/svg">
  <g transform="matrix(1.0, 0.0, 0.0, 1.0, 1.25, 2.9)">
    <path d="M4.45 -1.65 L5.8 12.2 13.05 11.4 13.35 14.5 16.55 -1.35 21.05 -1.5 29.1 15.8 23.9 16.4 22.5 13.05 18.45 13.75 18.05 16.8 12.9 16.6 13.1 15.6 1.95 16.7 0.0 -1.4 4.45 -1.65 M39.2 -0.4 Q44.2 1.0 44.2 4.1 44.2 6.65 40.15 8.7 37.5 10.05 33.8 10.9 L34.25 16.65 29.55 16.6 28.5 -1.2 30.0 -1.3 31.55 -1.3 Q35.9 -1.3 39.2 -0.4 M130.8 3.8 L134.7 3.45 134.95 7.45 130.9 7.55 130.8 3.8 M130.8 12.8 L134.8 12.65 134.95 16.4 131.05 16.75 130.8 12.8 M90.95 3.8 L94.85 3.45 95.05 7.45 91.05 7.55 90.95 3.8 M90.95 12.8 L94.9 12.65 95.05 16.4 91.15 16.75 90.95 12.8 M32.8 6.65 Q39.05 6.3 39.05 4.15 39.05 2.15 34.2 2.15 L32.45 2.25 32.8 6.65 M19.0 9.85 L21.35 9.45 19.65 5.15 19.0 9.85" fill="#ffff00" fill-rule="evenodd" stroke="none"/>
    <path d="M4.45 -1.65 L5.8 12.2 13.05 11.4 13.35 14.5 16.55 -1.35 21.05 -1.5 29.1 15.8 23.9 16.4 22.5 13.05 18.45 13.75 18.05 16.8 12.9 16.6 13.1 15.6 1.95 16.7 0.0 -1.4 4.45 -1.65 M39.2 -0.4 Q44.2 1.0 44.2 4.1 44.2 6.65 40.15 8.7 37.5 10.05 33.8 10.9 L34.25 16.65 29.55 16.6 28.5 -1.2 30.0 -1.3 31.55 -1.3 Q35.9 -1.3 39.2 -0.4 M130.8 3.8 L134.7 3.45 134.95 7.45 130.9 7.55 130.8 3.8 M130.8 12.8 L134.8 12.65 134.95 16.4 131.05 16.75 130.8 12.8 M90.95 3.8 L94.85 3.45 95.05 7.45 91.05 7.55 90.95 3.8 M90.95 12.8 L94.9 12.65 95.05 16.4 91.15 16.75 90.95 12.8 M32.8 6.65 Q39.05 6.3 39.05 4.15 39.05 2.15 34.2 2.15 L32.45 2.25 32.8 6.65 M19.0 9.85 L21.35 9.45 19.65 5.15 19.0 9.85 Z" fill="none" stroke="#ff0000" stroke-linecap="round" stroke-linejoin="round" stroke-width="2.5"/>
    <path d="M4.45 -1.65 L5.8 12.2 13.05 11.4 13.35 14.5 16.55 -1.35 21.05 -1.5 29.1 15.8 23.9 16.4 22.5 13.05 18.45 13.75 18.05 16.8 12.9 16.6 13.1 15.6 1.95 16.7 0.0 -1.4 4.45 -1.65 M30.0 -1.3 L31.55 -1.3 Q35.9 -1.3 39.2 -0.4 44.2 1.0 44.2 4.1 44.2 6.65 40.15 8.7 37.5 10.05 33.8 10.9 L34.25 16.65 29.55 16.6 28.5 -1.2 30.0 -1.3 M130.8 12.8 L134.8 12.65 134.95 16.4 131.05 16.75 130.8 12.8 M130.8 3.8 L134.7 3.45 134.95 7.45 130.9 7.55 130.8 3.8 M90.95 12.8 L94.9 12.65 95.05 16.4 91.15 16.75 90.95 12.8 M90.95 3.8 L94.85 3.45 95.05 7.45 91.05 7.55 90.95 3.8 M32.45 2.25 L32.8 6.65 Q39.05 6.3 39.05 4.15 39.05 2.15 34.2 2.15 L32.45 2.25 M19.0 9.85 L21.35 9.45 19.65 5.15 19.0 9.85" fill="#ffff00" fill-rule="evenodd" stroke="none"/>
  </g>
</svg>
