<?xml version="1.0" encoding="UTF-8" standalone="no"?>
<svg xmlns:xlink="http://www.w3.org/1999/xlink" height="118.0px" width="275.95px" xmlns="http://www.w3.org/2000/svg">
  <g transform="matrix(1.0, 0.0, 0.0, 1.0, 52.05, 12.95)">
    <path d="M104.0 -9.5 Q148.35 -7.25 181.35 6.45 220.9 22.85 220.9 46.05 220.9 69.25 181.35 85.65 148.35 99.35 104.0 101.6 95.2 102.05 85.9 102.05 30.0 102.05 -9.5 85.65 -49.05 69.25 -49.05 46.05 -49.05 22.85 -9.5 6.45 30.0 -9.95 85.9 -9.95 95.2 -9.95 104.0 -9.5" fill="#ffb100" fill-rule="evenodd" stroke="none"/>
    <path d="M104.0 -9.5 Q148.35 -7.25 181.35 6.45 220.9 22.85 220.9 46.05 220.9 69.25 181.35 85.65 148.35 99.35 104.0 101.6 95.2 102.05 85.9 102.05 30.0 102.05 -9.5 85.65 -49.05 69.25 -49.05 46.05 -49.05 22.85 -9.5 6.45 30.0 -9.95 85.9 -9.95 95.2 -9.95 104.0 -9.5 Z" fill="none" stroke="#ff0000" stroke-linecap="round" stroke-linejoin="round" stroke-width="6.0"/>
    <path d="M141.4 22.0 Q162.35 25.8 162.35 33.85 162.35 39.35 154.0 42.25 147.85 44.35 141.5 44.3 147.65 45.9 153.15 49.4 160.4 54.05 160.4 59.35 160.4 68.05 142.55 68.05 L127.05 66.8 127.7 57.4 131.3 58.4 134.95 59.45 Q139.25 60.55 142.3 60.55 148.35 60.55 148.35 55.95 148.35 50.25 134.8 48.3 L130.6 47.8 131.35 37.8 134.35 38.35 137.25 38.85 143.2 39.45 Q150.75 39.45 150.75 34.35 150.75 29.4 137.2 29.4 L128.85 29.95 129.7 20.15 141.4 22.0 M81.15 28.75 L78.55 28.85 75.95 29.05 76.8 43.1 Q93.6 41.9 93.6 35.25 93.6 28.75 81.15 28.75 M103.75 35.1 Q103.75 41.75 94.1 46.9 88.05 50.2 79.1 52.45 L80.15 67.8 71.1 67.65 68.6 21.9 71.7 21.75 74.9 21.65 Q85.1 21.65 92.2 23.75 103.75 27.15 103.75 35.1 M51.9 21.15 L70.1 65.6 59.95 66.9 56.8 57.75 45.45 60.15 44.55 68.1 34.35 67.75 34.85 65.0 10.85 67.8 6.35 21.35 14.9 20.85 18.1 58.15 35.2 56.1 35.6 60.9 42.65 21.5 51.9 21.15 M54.7 50.35 L48.7 33.3 46.4 51.95 54.7 50.35" fill="#fff600" fill-rule="evenodd" stroke="none"/>
    <path d="M141.4 22.0 Q162.35 25.8 162.35 33.85 162.35 39.35 154.0 42.25 147.85 44.35 141.5 44.3 147.65 45.9 153.15 49.4 160.4 54.05 160.4 59.35 160.4 68.05 142.55 68.05 L127.05 66.8 127.7 57.4 131.3 58.4 134.95 59.45 Q139.25 60.55 142.3 60.55 148.35 60.55 148.35 55.95 148.35 50.25 134.8 48.3 L130.6 47.8 131.35 37.8 134.35 38.35 137.25 38.85 143.2 39.45 Q150.75 39.45 150.75 34.35 150.75 29.4 137.2 29.4 L128.85 29.95 129.7 20.15 141.4 22.0 M81.15 28.75 L78.55 28.85 75.95 29.05 76.8 43.1 Q93.6 41.9 93.6 35.25 93.6 28.75 81.15 28.75 M103.75 35.1 Q103.75 41.75 94.1 46.9 88.05 50.2 79.1 52.45 L80.15 67.8 71.1 67.65 68.6 21.9 71.7 21.75 74.9 21.65 Q85.1 21.65 92.2 23.75 103.75 27.15 103.75 35.1 M51.9 21.15 L70.1 65.6 59.95 66.9 56.8 57.75 45.45 60.15 44.55 68.1 34.35 67.75 34.85 65.0 10.85 67.8 6.35 21.35 14.9 20.85 18.1 58.15 35.2 56.1 35.6 60.9 42.65 21.5 51.9 21.15 M54.7 50.35 L48.7 33.3 46.4 51.95 54.7 50.35 Z" fill="none" stroke="#ff0000" stroke-linecap="round" stroke-linejoin="round" stroke-width="8.0"/>
    <path d="M141.4 22.0 Q162.35 25.8 162.35 33.85 162.35 39.35 154.0 42.25 147.85 44.35 141.5 44.3 147.65 45.9 153.15 49.4 160.4 54.05 160.4 59.35 160.4 68.05 142.55 68.05 L127.05 66.8 127.7 57.4 131.3 58.4 134.95 59.45 Q139.25 60.55 142.3 60.55 148.35 60.55 148.35 55.95 148.35 50.25 134.8 48.3 L130.6 47.8 131.35 37.8 134.35 38.35 137.25 38.85 143.2 39.45 Q150.75 39.45 150.75 34.35 150.75 29.4 137.2 29.4 L128.85 29.95 129.7 20.15 141.4 22.0 M81.15 28.75 L78.55 28.85 75.95 29.05 76.8 43.1 Q93.6 41.9 93.6 35.25 93.6 28.75 81.15 28.75 M103.75 35.1 Q103.75 41.75 94.1 46.9 88.05 50.2 79.1 52.45 L80.15 67.8 71.1 67.65 68.6 21.9 71.7 21.75 74.9 21.65 Q85.1 21.65 92.2 23.75 103.75 27.15 103.75 35.1 M51.9 21.15 L70.1 65.6 59.95 66.9 56.8 57.75 45.45 60.15 44.55 68.1 34.35 67.75 34.85 65.0 10.85 67.8 6.35 21.35 14.9 20.85 18.1 58.15 35.2 56.1 35.6 60.9 42.65 21.5 51.9 21.15 M54.7 50.35 L48.7 33.3 46.4 51.95 54.7 50.35" fill="#fff600" fill-rule="evenodd" stroke="none"/>
  </g>
</svg>
