<?xml version="1.0" encoding="UTF-8" standalone="no"?>
<svg xmlns:xlink="http://www.w3.org/1999/xlink" height="118.0px" width="275.95px" xmlns="http://www.w3.org/2000/svg">
  <g transform="matrix(1.0, 0.0, 0.0, 1.0, 52.05, 12.95)">
    <path d="M104.0 -9.5 Q148.35 -7.25 181.35 6.45 220.9 22.85 220.9 46.05 220.9 69.25 181.35 85.65 148.35 99.35 104.0 101.6 95.2 102.05 85.9 102.05 30.0 102.05 -9.5 85.65 -49.05 69.25 -49.05 46.05 -49.05 22.85 -9.5 6.45 30.0 -9.95 85.9 -9.95 95.2 -9.95 104.0 -9.5" fill="#ffb100" fill-rule="evenodd" stroke="none"/>
    <path d="M104.0 -9.5 Q148.35 -7.25 181.35 6.45 220.9 22.85 220.9 46.05 220.9 69.25 181.35 85.65 148.35 99.35 104.0 101.6 95.2 102.05 85.9 102.05 30.0 102.05 -9.5 85.65 -49.05 69.25 -49.05 46.05 -49.05 22.85 -9.5 6.45 30.0 -9.95 85.9 -9.95 95.2 -9.95 104.0 -9.5 Z" fill="none" stroke="#ff0000" stroke-linecap="round" stroke-linejoin="round" stroke-width="6.0"/>
  </g>
</svg>
