<?xml version="1.0" encoding="UTF-8" standalone="no"?>
<svg xmlns:xlink="http://www.w3.org/1999/xlink" height="64.8px" width="135.0px" xmlns="http://www.w3.org/2000/svg">
  <g transform="matrix(1.0, 0.0, 0.0, 1.0, 67.5, 32.4)">
    <path d="M55.5 -30.4 Q65.5 -30.4 65.5 -20.4 L65.5 20.4 Q65.5 30.4 55.5 30.4 L-55.5 30.4 Q-65.5 30.4 -65.5 20.4 L-65.5 -20.4 Q-65.5 -30.4 -55.5 -30.4 L55.5 -30.4" fill="#ffffff" fill-rule="evenodd" stroke="none"/>
    <path d="M55.5 -30.4 L-55.5 -30.4 Q-65.5 -30.4 -65.5 -20.4 L-65.5 20.4 Q-65.5 30.4 -55.5 30.4 L55.5 30.4 Q65.5 30.4 65.5 20.4 L65.5 -20.4 Q65.5 -30.4 55.5 -30.4 Z" fill="none" stroke="#d56a00" stroke-linecap="round" stroke-linejoin="round" stroke-width="4.0"/>
  </g>
</svg>
