<?xml version="1.0" encoding="UTF-8" standalone="no"?>
<svg xmlns:xlink="http://www.w3.org/1999/xlink" height="25.15px" width="197.4px" xmlns="http://www.w3.org/2000/svg">
  <g transform="matrix(1.0, 0.0, 0.0, 1.0, 35.7, -13.0)">
    <path d="M146.25 20.45 L144.9 20.9 144.75 20.95 Q145.4 21.85 145.4 22.7 145.4 23.6 144.7 24.75 L143.75 25.7 142.5 26.55 140.55 27.65 142.6 27.9 144.55 28.55 Q145.95 29.4 145.95 30.85 145.95 31.65 145.45 32.4 L143.3 34.15 Q141.85 35.05 141.4 35.15 L140.1 35.3 137.6 34.9 Q136.35 34.4 136.3 33.4 L136.6 32.6 Q137.0 31.7 138.4 30.55 L139.0 30.5 Q138.1 31.2 138.1 31.8 138.1 32.25 138.6 32.8 139.8 33.8 141.85 33.7 143.05 33.65 143.25 32.55 L143.25 32.1 Q143.25 30.55 141.75 29.75 L140.6 29.4 137.4 29.15 137.4 29.0 138.4 28.45 139.65 27.65 Q138.15 27.45 137.35 26.5 136.7 25.6 136.7 24.35 136.7 22.0 138.95 20.75 L139.85 20.15 Q140.85 19.65 141.7 19.6 L143.7 20.0 144.95 20.2 146.2 20.1 146.15 20.15 146.25 20.2 146.25 20.45 M125.45 21.1 Q127.15 20.35 129.15 19.2 L128.95 21.0 129.0 21.35 130.1 20.5 131.25 19.6 133.0 19.5 Q133.65 19.6 134.1 20.3 134.5 20.95 134.5 21.6 L134.35 24.2 134.45 26.95 134.7 27.7 135.5 28.55 136.3 28.75 136.4 29.1 134.0 29.1 132.2 29.15 132.25 26.55 132.5 24.15 Q132.55 23.2 132.2 22.4 131.65 21.35 130.6 21.35 L130.0 21.45 Q128.95 21.65 128.85 22.75 L128.8 23.3 128.75 25.35 128.85 27.4 129.1 28.35 Q129.3 28.8 130.0 28.8 L130.05 28.9 130.05 29.0 130.1 29.1 130.0 29.1 127.25 29.05 125.45 29.0 125.55 28.8 Q126.2 28.65 126.3 28.5 126.85 27.45 126.9 25.1 L126.9 22.55 126.8 21.8 126.3 21.3 125.35 21.35 125.35 21.25 125.45 21.1 M139.0 21.8 L138.85 22.55 Q138.85 23.95 139.75 24.85 140.65 25.8 142.1 25.8 L142.25 25.75 142.45 25.75 142.7 25.1 142.85 24.1 Q142.85 22.0 140.95 21.35 L139.75 21.1 139.3 21.2 139.0 21.8 M124.75 28.1 L124.85 28.4 122.8 29.05 121.75 29.3 Q121.3 29.3 121.25 28.85 L121.25 28.65 121.4 27.05 119.9 28.4 Q118.8 29.25 118.15 29.25 L116.4 28.8 116.15 28.75 115.7 27.95 115.45 27.0 Q115.45 26.15 116.15 25.4 116.75 24.75 117.65 24.45 L121.3 23.05 121.3 22.85 121.1 22.05 Q120.65 20.85 118.95 20.85 L117.8 21.1 Q117.1 21.35 116.55 21.7 116.8 21.2 117.2 20.95 L117.9 20.45 Q119.75 18.9 121.0 18.9 123.65 18.9 123.5 22.15 L123.35 25.95 Q123.35 26.85 123.6 27.4 123.95 28.15 124.75 28.1 M161.3 26.9 Q161.7 27.4 161.7 28.1 161.7 28.85 161.3 29.35 160.9 29.85 160.2 29.85 159.5 29.85 159.05 29.3 158.6 28.8 158.6 28.1 158.6 27.45 159.05 26.9 159.5 26.4 160.2 26.4 160.9 26.4 161.3 26.9 M157.75 29.35 Q157.35 29.85 156.65 29.85 155.95 29.85 155.5 29.3 155.05 28.8 155.05 28.1 155.05 27.45 155.5 26.9 155.95 26.4 156.65 26.4 157.35 26.4 157.75 26.9 158.15 27.4 158.15 28.1 158.15 28.85 157.75 29.35 M154.2 26.9 Q154.6 27.4 154.6 28.1 154.6 28.85 154.2 29.35 153.8 29.85 153.1 29.85 152.4 29.85 151.95 29.3 151.5 28.8 151.5 28.1 151.5 27.45 151.95 26.9 152.4 26.4 153.1 26.4 153.8 26.4 154.2 26.9 M121.5 23.8 L121.35 23.8 120.2 24.15 118.65 24.7 Q117.8 25.15 117.8 25.9 117.8 26.6 118.5 26.95 L119.65 27.25 Q120.3 27.25 120.9 26.75 121.5 26.25 121.5 25.55 L121.5 23.8 M104.0 20.35 L107.5 19.6 Q108.85 22.0 110.25 26.0 L111.25 23.8 111.9 21.45 111.6 20.55 Q111.25 20.2 110.7 20.25 L110.6 19.5 110.8 19.95 113.05 19.95 115.45 19.8 115.5 20.05 Q115.1 20.2 114.55 21.2 L112.25 25.75 108.45 32.0 107.0 33.75 105.45 35.3 103.0 37.3 Q101.65 38.15 99.95 38.15 98.55 38.15 98.0 37.3 97.6 36.7 97.6 35.3 L95.35 34.9 Q94.1 34.4 94.05 33.4 L94.35 32.6 Q94.75 31.7 96.15 30.55 L96.75 30.5 Q95.85 31.2 95.85 31.8 95.85 32.25 96.35 32.8 97.55 33.8 99.6 33.7 100.8 33.65 101.0 32.55 L101.0 32.1 Q101.0 30.55 99.5 29.75 L98.35 29.4 95.15 29.15 95.15 29.0 96.15 28.45 97.4 27.65 Q95.9 27.45 95.1 26.5 94.45 25.6 94.45 24.35 94.45 22.0 96.7 20.75 L97.6 20.15 Q98.6 19.65 99.45 19.6 L101.45 20.0 102.7 20.2 103.95 20.1 103.9 20.15 104.0 20.2 104.0 20.35 M103.45 20.65 L102.65 20.9 102.5 20.95 Q103.15 21.85 103.15 22.7 103.15 23.6 102.45 24.75 L101.5 25.7 100.25 26.55 98.3 27.65 100.35 27.9 Q101.5 28.1 102.3 28.55 103.7 29.4 103.7 30.85 103.7 31.65 103.2 32.4 L101.05 34.15 Q99.6 35.05 99.15 35.15 L99.05 35.2 99.95 35.4 102.2 35.55 Q105.75 35.55 107.9 31.1 108.65 29.6 108.65 28.75 108.65 27.75 106.2 23.05 L105.1 21.05 Q104.95 20.6 103.4 20.8 L103.45 20.65 M84.05 21.3 L83.1 21.35 83.1 21.25 83.2 21.1 86.9 19.2 86.7 21.0 86.75 21.35 87.85 20.5 89.0 19.6 90.75 19.5 Q91.4 19.6 91.85 20.3 92.25 20.95 92.25 21.6 L92.1 24.2 92.2 26.95 92.45 27.7 Q92.75 28.35 93.25 28.55 L94.05 28.75 94.15 29.1 91.75 29.1 89.95 29.15 90.0 26.55 90.25 24.15 Q90.3 23.2 89.95 22.4 89.4 21.35 88.35 21.35 L87.75 21.45 Q86.7 21.65 86.6 22.75 L86.55 23.3 86.5 25.35 86.6 27.4 86.85 28.35 Q87.05 28.8 87.75 28.8 L87.8 28.9 87.8 29.0 87.85 29.1 87.75 29.1 85.0 29.05 83.2 29.0 83.3 28.8 84.05 28.5 Q84.6 27.45 84.65 25.1 L84.65 22.55 84.55 21.8 84.05 21.3 M83.05 23.75 L82.8 25.0 Q82.5 25.8 81.05 26.95 L78.95 28.65 77.05 29.15 75.45 28.7 Q74.2 28.3 73.5 27.0 73.0 26.0 73.0 24.75 73.0 23.6 73.55 22.35 73.95 21.55 75.3 20.65 76.45 19.9 77.5 19.5 L79.3 19.25 79.95 19.55 80.9 19.95 Q81.85 20.35 82.5 21.55 83.05 22.65 83.05 23.75 M96.75 21.8 L96.6 22.55 Q96.6 23.95 97.5 24.85 98.4 25.8 99.85 25.8 L100.0 25.75 100.2 25.75 100.45 25.1 100.6 24.1 Q100.6 22.0 98.7 21.35 L97.5 21.1 97.05 21.2 96.75 21.8 M62.55 21.05 Q62.4 20.6 60.85 20.8 L60.85 20.5 64.95 19.6 Q66.3 22.0 67.7 26.0 L68.7 23.8 69.35 21.45 69.05 20.55 Q68.7 20.2 68.15 20.25 L68.05 19.5 68.25 19.95 70.5 19.95 72.9 19.8 72.95 20.05 Q72.55 20.2 72.0 21.2 L69.7 25.75 65.9 32.0 64.45 33.75 62.9 35.3 60.45 37.3 Q59.1 38.15 57.4 38.15 56.0 38.15 55.45 37.3 55.05 36.7 55.05 35.2 L55.1 34.1 55.1 33.9 Q55.15 33.65 55.3 33.8 L55.4 33.8 55.65 34.6 Q55.7 35.1 57.4 35.4 L59.65 35.55 Q63.2 35.55 65.35 31.1 66.1 29.6 66.1 28.75 66.1 27.75 63.65 23.05 L62.55 21.05 M75.3 23.2 Q75.3 26.0 78.0 26.85 L79.45 27.15 80.05 27.0 Q80.55 26.25 80.55 25.2 80.55 23.9 80.05 23.0 79.35 21.75 78.25 21.3 L77.5 20.95 76.6 20.8 Q75.95 20.8 75.55 21.7 75.3 22.4 75.3 23.2 M50.1 13.4 L51.1 13.15 51.5 13.15 51.55 14.0 55.9 13.6 Q57.75 13.5 59.05 14.3 60.4 15.2 60.4 16.9 60.4 18.5 59.0 19.9 57.8 21.05 56.0 21.8 54.35 22.5 53.25 22.5 L52.05 22.25 52.55 22.25 52.85 22.25 Q54.15 22.25 54.85 21.2 55.4 20.35 55.4 19.2 55.4 17.6 54.5 16.2 53.5 14.6 51.95 14.6 L51.5 14.8 51.3 17.25 51.3 21.45 51.25 25.7 51.55 27.2 Q51.9 28.1 52.85 28.55 L54.05 28.8 54.05 29.1 51.15 29.1 49.0 29.2 47.05 29.25 46.3 29.4 47.0 20.95 Q47.1 19.2 46.85 17.65 46.45 14.8 45.1 14.8 L44.85 14.85 44.55 14.9 44.2 14.65 44.2 14.5 46.3 14.2 48.95 13.75 50.1 13.4 M24.95 19.5 Q25.6 19.6 26.05 20.3 26.45 20.95 26.45 21.6 L26.3 24.2 26.4 26.95 26.65 27.7 27.45 28.55 28.25 28.75 28.35 29.1 25.95 29.1 24.15 29.15 24.2 26.55 24.45 24.15 Q24.5 23.2 24.15 22.4 23.6 21.35 22.55 21.35 L21.95 21.45 Q20.9 21.65 20.8 22.75 L20.75 23.3 20.7 25.35 20.8 27.4 21.05 28.35 Q21.25 28.8 21.95 28.8 L22.0 28.9 22.0 29.0 22.05 29.1 21.95 29.1 19.2 29.05 17.4 29.0 17.5 28.8 18.25 28.5 Q18.8 27.45 18.85 25.1 L18.85 22.55 18.75 21.8 18.25 21.3 17.3 21.35 17.3 21.25 17.4 21.1 21.1 19.2 20.9 21.0 20.95 21.35 22.05 20.5 23.2 19.6 24.95 19.5 M33.65 19.6 L35.65 20.0 36.9 20.2 38.15 20.1 38.1 20.15 38.2 20.2 38.2 20.45 36.85 20.9 36.7 20.95 Q37.35 21.85 37.35 22.7 37.35 23.6 36.65 24.75 L35.7 25.7 34.45 26.55 32.5 27.65 34.55 27.9 Q35.7 28.1 36.5 28.55 37.9 29.4 37.9 30.85 L37.4 32.4 35.25 34.15 Q33.8 35.05 33.35 35.15 L32.05 35.3 Q30.6 35.3 29.55 34.9 28.3 34.4 28.25 33.4 L28.55 32.6 Q28.95 31.7 30.35 30.55 L30.95 30.5 Q30.05 31.2 30.05 31.8 30.05 32.25 30.55 32.8 31.75 33.8 33.8 33.7 35.0 33.65 35.2 32.55 L35.2 32.1 Q35.2 30.55 33.7 29.75 L32.55 29.4 29.35 29.15 29.35 29.0 30.35 28.45 31.6 27.65 Q30.1 27.45 29.3 26.5 28.65 25.6 28.65 24.35 28.65 22.0 30.9 20.75 L31.8 20.15 Q32.8 19.65 33.65 19.6 M30.95 21.8 L30.8 22.55 Q30.8 23.95 31.7 24.85 32.6 25.8 34.05 25.8 L34.2 25.75 34.4 25.75 34.65 25.1 34.8 24.1 Q34.8 22.0 32.9 21.35 L31.7 21.1 31.25 21.2 30.95 21.8 M6.45 15.3 Q8.95 14.45 11.35 13.0 L11.2 13.25 11.15 13.5 10.8 13.95 10.65 14.8 10.15 21.35 10.05 22.75 9.95 24.95 Q10.0 27.8 10.95 27.8 L11.75 27.55 11.55 27.35 11.75 27.3 12.1 27.75 Q8.9 29.35 8.15 29.35 L8.0 29.3 8.05 27.3 6.65 28.45 Q5.8 29.0 5.05 29.15 3.1 28.75 1.95 27.35 1.0 26.1 1.0 24.5 1.0 22.95 1.85 21.85 2.7 20.8 4.7 19.7 5.6 19.2 7.05 19.2 L8.25 19.35 8.25 18.35 8.05 16.65 Q7.7 15.5 6.9 15.5 L6.55 15.5 6.45 15.4 6.45 15.3 M3.0 23.05 Q3.0 24.6 4.35 25.75 5.65 26.85 7.1 26.85 L8.05 26.65 8.15 24.5 8.15 22.4 7.95 21.65 Q7.7 21.3 6.45 20.9 L4.7 20.6 3.8 20.85 Q3.0 21.65 3.0 23.05 M14.15 15.8 L16.15 17.8 14.05 19.65 12.05 17.65 14.15 15.8 M11.55 21.5 L11.4 21.4 11.4 21.25 Q13.95 20.4 16.3 18.95 L16.15 19.25 16.15 19.5 15.8 19.9 15.6 20.8 15.4 23.25 15.4 26.85 Q15.4 27.65 15.55 27.9 L16.25 28.7 16.55 28.7 16.75 28.7 16.8 28.85 16.65 29.1 12.15 29.05 11.95 28.7 12.55 28.6 13.0 28.15 Q13.35 25.95 13.3 24.3 13.3 21.45 11.85 21.45 L11.55 21.5 M0.7 28.4 L-1.35 29.05 -2.4 29.3 Q-2.85 29.3 -2.9 28.85 L-2.9 28.65 -2.75 27.05 -4.25 28.4 Q-5.35 29.25 -6.0 29.25 L-7.75 28.8 -8.0 28.75 -8.45 27.95 -8.7 27.0 Q-8.7 26.15 -8.0 25.4 -7.4 24.75 -6.5 24.45 L-2.85 23.05 -2.85 22.85 -3.05 22.05 Q-3.5 20.85 -5.2 20.85 L-6.35 21.1 -7.6 21.7 -6.95 20.95 -6.25 20.45 Q-4.4 18.9 -3.15 18.9 -0.5 18.9 -0.65 22.15 L-0.8 25.95 -0.55 27.4 Q-0.2 28.15 0.6 28.1 L0.7 28.4 M-16.7 23.2 Q-16.7 26.0 -14.0 26.85 L-12.55 27.15 -11.95 27.0 Q-11.45 26.25 -11.45 25.2 -11.45 23.9 -11.95 23.0 -12.65 21.75 -13.75 21.3 L-14.5 20.95 -15.4 20.8 Q-16.05 20.8 -16.45 21.7 L-16.7 23.2 M-16.7 20.65 Q-15.55 19.9 -14.5 19.5 L-12.7 19.25 -12.05 19.55 -11.1 19.95 Q-10.15 20.35 -9.5 21.55 -8.95 22.65 -8.95 23.75 L-9.2 25.0 Q-9.5 25.8 -10.95 26.95 L-13.05 28.65 Q-13.75 29.15 -14.95 29.15 L-16.55 28.7 Q-17.8 28.3 -18.5 27.0 -19.0 26.0 -19.0 24.75 -19.0 23.6 -18.45 22.35 -18.05 21.55 -16.7 20.65 M-2.8 23.8 L-3.95 24.15 Q-5.0 24.4 -5.5 24.7 -6.35 25.15 -6.35 25.9 -6.35 26.6 -5.65 26.95 L-4.5 27.25 Q-3.85 27.25 -3.25 26.75 -2.65 26.25 -2.65 25.55 L-2.65 23.8 -2.8 23.8 M-33.5 16.9 Q-33.65 15.7 -33.9 15.15 -34.35 14.25 -35.3 14.2 L-35.5 14.1 -35.7 13.85 -32.1 13.75 -28.5 13.5 -28.5 13.8 -28.6 14.8 -28.9 17.0 -29.25 21.35 Q-29.25 24.15 -28.9 25.1 -28.5 26.0 -27.05 26.8 L-25.4 27.5 -19.9 27.85 -20.55 28.3 -25.35 28.9 -30.25 29.1 -31.9 29.0 -33.5 28.8 -33.6 28.8 -33.6 28.85 -33.65 28.85 -33.75 28.85 -33.95 28.6 -33.75 28.4 -33.5 28.05 -33.3 25.8 -33.1 22.45 Q-33.1 19.8 -33.5 16.9" fill="#fff600" fill-rule="evenodd" stroke="none"/>
  </g>
</svg>
