<?xml version="1.0" encoding="UTF-8" standalone="no"?>
<svg xmlns:xlink="http://www.w3.org/1999/xlink" height="500.0px" width="761.5px" xmlns="http://www.w3.org/2000/svg">
  <g transform="matrix(1.0, 0.0, 0.0, 1.0, 0.0, 0.0)">
    <path d="M760.0 500.0 L0.0 500.0 0.0 0.0 760.0 0.0 760.0 500.0" fill="#000000" fill-opacity="0.6" fill-rule="evenodd" stroke="none"/>
    <path d="M755.0 72.0 Q760.0 72.0 760.0 77.0 L760.0 255.0 Q760.0 260.0 755.0 260.0 L403.95 260.0 Q396.4 260.0 392.25 257.15 387.0 253.45 382.95 243.0 L352.0 161.0 Q349.6 153.05 352.45 147.75 355.6 141.9 365.3 139.1 L755.0 72.0" fill="#ffff00" fill-rule="evenodd" stroke="none"/>
    <path d="M755.0 72.0 L365.3 139.1 Q355.6 141.9 352.45 147.75 349.6 153.05 352.0 161.0 L382.95 243.0 Q387.0 253.45 392.25 257.15 396.4 260.0 403.95 260.0 L755.0 260.0 Q760.0 260.0 760.0 255.0 L760.0 77.0 Q760.0 72.0 755.0 72.0 Z" fill="none" stroke="#009900" stroke-linecap="round" stroke-linejoin="round" stroke-width="3.0"/>
  </g>
</svg>
