<?xml version="1.0" encoding="UTF-8" standalone="no"?>
<svg xmlns:xlink="http://www.w3.org/1999/xlink" height="17.05px" width="112.0px" xmlns="http://www.w3.org/2000/svg">
  <g transform="matrix(1.0, 0.0, 0.0, 1.0, 56.0, 8.55)">
    <path d="M3.0 -7.55 L-0.25 -7.55 -3.75 -7.55 -7.0 -7.55 -10.5 -7.55 -13.75 -7.55 -17.25 -7.55 -20.5 -7.55 -24.0 -7.55 -27.25 -7.55 -30.75 -7.55 -34.0 -7.55 -37.5 -7.55 -40.75 -7.55 -44.25 -7.55 -47.5 -7.55 -51.0 -7.55 Q-55.0 -7.55 -55.0 -4.2 L-55.0 4.15 Q-55.0 7.5 -51.0 7.5 L-47.5 7.5 -44.25 7.5 -40.75 7.5 -37.5 7.5 -34.0 7.5 -30.75 7.5 -27.25 7.5 -24.0 7.5 -20.5 7.5 -17.25 7.5 -13.75 7.5 -10.5 7.5 -7.0 7.5 -3.75 7.5 -0.25 7.5 3.0 7.5 6.5 7.5 9.75 7.5 13.25 7.5 16.5 7.5 20.0 7.5 23.25 7.5 26.75 7.5 29.75 7.5 33.25 7.5 36.5 7.5 40.0 7.5 43.25 7.5 46.75 7.5 50.5 7.5 51.0 7.5 Q55.0 7.5 55.0 4.15 L55.0 -4.2 Q55.0 -7.55 51.0 -7.55 L50.5 -7.55 46.75 -7.55 43.25 -7.55 40.0 -7.55 36.5 -7.55 33.25 -7.55 29.75 -7.55 26.75 -7.55 23.25 -7.55 20.0 -7.55 16.5 -7.55 13.25 -7.55 9.75 -7.55 6.5 -7.55 3.0 -7.55 Z" fill="none" stroke="#000000" stroke-linecap="round" stroke-linejoin="round" stroke-width="2.0"/>
  </g>
</svg>
