<?xml version="1.0" encoding="UTF-8" standalone="no"?>
<svg xmlns:xlink="http://www.w3.org/1999/xlink" height="29.15px" width="28.2px" xmlns="http://www.w3.org/2000/svg">
  <g transform="matrix(1.0, 0.0, 0.0, 1.0, 14.1, 14.55)">
    <path d="M2.4 -2.95 L9.6 -2.95 Q7.8 -0.6 9.6 1.85 L2.4 1.85 2.4 9.85 Q0.25 6.25 -2.35 9.85 L-2.4 1.85 -9.6 1.85 Q-7.35 -0.15 -9.6 -2.95 L-2.4 -2.95 -2.35 -11.0 Q0.1 -8.0 2.4 -10.8 L2.4 -2.95" fill="#ff0000" fill-rule="evenodd" stroke="none"/>
    <path d="M2.4 -2.95 L2.4 -10.8 Q0.1 -8.0 -2.35 -11.0 L-2.4 -2.95 -9.6 -2.95 Q-7.35 -0.15 -9.6 1.85 L-2.4 1.85 -2.35 9.85 Q0.25 6.25 2.4 9.85 L2.4 1.85 9.6 1.85 Q7.8 -0.6 9.6 -2.95 L2.4 -2.95 M4.75 -12.75 Q7.65 -12.75 10.6 -14.55 11.9 -13.3 12.85 -11.25 14.1 -8.55 14.1 -5.65 14.1 2.35 10.15 7.85 6.35 13.1 0.0 14.6 -6.35 13.1 -10.15 7.85 -14.1 2.35 -14.1 -5.65 -14.1 -8.55 -12.85 -11.25 -11.9 -13.3 -10.6 -14.55 -7.65 -12.75 -4.75 -12.75 -1.9 -12.75 0.0 -14.5 1.9 -12.75 4.75 -12.75" fill="url(#gradient0)" fill-rule="evenodd" stroke="none"/>
  </g>
  <defs>
    <radialGradient cx="0" cy="0" gradientTransform="matrix(0.022, 0.0, 0.0, 0.022, 0.0, 0.05)" gradientUnits="userSpaceOnUse" id="gradient0" r="819.2" spreadMethod="pad">
      <stop offset="0.0" stop-color="#ff7407"/>
      <stop offset="0.7490196078431373" stop-color="#ffcc76"/>
      <stop offset="1.0" stop-color="#fffc56"/>
    </radialGradient>
  </defs>
</svg>
