<?xml version="1.0" encoding="UTF-8" standalone="no"?>
<svg xmlns:xlink="http://www.w3.org/1999/xlink" height="113.0px" width="486.95px" xmlns="http://www.w3.org/2000/svg">
  <g transform="matrix(1.0, 0.0, 0.0, 1.0, 0.0, 0.0)">
    <path d="M481.95 9.5 L481.95 9.0 481.65 5.75 Q486.95 7.7 486.95 15.0 L486.95 103.0 Q486.95 113.0 476.95 113.0 L15.0 113.0 Q7.5 113.0 5.65 107.4 L10.0 108.0 471.95 108.0 Q481.95 108.0 481.95 98.0 L481.95 9.5" fill="#cccccc" fill-opacity="0.29803923" fill-rule="evenodd" stroke="none"/>
    <path d="M5.65 107.4 L5.35 107.3 Q0.0 105.3 0.0 98.0 L0.0 10.0 Q0.0 0.0 10.0 0.0 L471.95 0.0 Q480.15 0.0 481.65 6.75 L481.95 9.5 481.95 98.0 Q481.95 108.0 471.95 108.0 L10.0 108.0 5.65 107.4" fill="#ffffff" fill-rule="evenodd" stroke="none"/>
  </g>
</svg>
